<?xml version="1.0" encoding="utf-8"?>
<!-- Generator: Adobe Illustrator 16.0.0, SVG Export Plug-In . SVG Version: 6.00 Build 0)  -->
<!DOCTYPE svg PUBLIC "-//W3C//DTD SVG 1.1//EN" "http://www.w3.org/Graphics/SVG/1.1/DTD/svg11.dtd">
<svg version="1.1" id="Calque_1" xmlns="http://www.w3.org/2000/svg" xmlns:xlink="http://www.w3.org/1999/xlink" x="0px" y="0px"
	 width="728.5px" height="515.91px" viewBox="0 0 728.5 515.91" enable-background="new 0 0 728.5 515.91" xml:space="preserve">
<g>
	<path fill="#A9BAC7" d="M295.119,319.227c-1.398,3.147-3.497,8.043-4.021,9.092c-0.874,1.574-2.797,3.322-6.819,3.322h-27.976
		V212.742c0.175-1.923,1.748-3.497,3.847-3.497h32.697l-4.196,9.092c-0.699,1.574-2.623,3.497-6.645,3.497h-10.141
		c-1.749,0-2.973,1.224-2.973,2.973v36.369h18.884c-1.398,3.147-3.497,8.218-4.021,9.268c-0.874,1.573-2.623,3.321-6.644,3.321
		h-5.246c-1.574,0-2.973,1.399-2.973,2.973v42.489H295.119z"/>
	<path fill="#272D47" d="M382.016,240.019v-14.163c0-3.847-2.973-6.819-6.645-6.819s-6.645,2.972-6.645,6.819v11.715
		c0,7.168,5.421,16.436,5.421,16.436l15.037,28.326c6.119,11.19,5.595,19.408,5.595,19.408v15.562
		c0,8.567-6.994,15.562-15.736,15.562h-7.868c-8.393-0.35-15.037-7.169-15.212-15.562v-12.589c0-4.021,1.923-5.945,3.497-6.819
		c1.049-0.35,6.119-2.623,9.267-4.021v21.332c0,3.672,2.973,6.644,6.645,6.644s6.645-2.972,6.645-6.818v-13.988
		c0-7.169-5.421-16.611-5.421-16.611l-15.037-28.15c-6.12-11.19-5.595-19.409-5.595-19.409v-12.589
		c0-8.567,6.994-16.261,15.736-16.261h7.868c8.393,0.175,15.212,7.868,15.212,16.261v4.721c0,4.021-1.923,5.945-3.497,6.819
		C390.233,236.347,385.338,238.62,382.016,240.019z"/>
	<path fill="#A9BAC7" d="M502.134,331.641H488.32l-11.016-84.278l-11.016,84.278h-13.812l18.534-122.396h6.818
		c5.246,0,6.12,3.322,6.645,6.645L502.134,331.641z"/>
</g>
<path fill="#A9BAC7" d="M368.442,154.009c0,0-76.356,69.865-77.978,12.479C288.833,109.117,368.442,154.009,368.442,154.009z"/>
<path fill="#A9BAC7" d="M374.262,147.966c0,0-29.308-104.797,23.597-82.529C450.756,87.703,374.262,147.966,374.262,147.966z"/>
<path fill="#272D47" d="M382.724,152.267c0,0,91.013-57.771,84.545-0.73C460.792,208.56,382.724,152.267,382.724,152.267z"/>
<g>
	<path fill="#272D47" stroke="#272D47" stroke-width="3" stroke-miterlimit="10" d="M287.707,382.505
		c-2.888,1.468-7.197,1.895-10.369,1.895c-10.701,0-15.625-6.581-15.625-16.809c0-8.57,4.119-16.809,13.684-16.809
		c6.345,0,10.511,3.22,12.168,8.238l-0.899,0.379c-1.562-4.972-5.445-7.67-11.269-7.67c-9.043,0-12.736,7.859-12.736,15.861
		c0,9.706,4.498,15.861,14.678,15.861c2.983,0,6.628-0.379,9.422-1.515v-12.026h-10.653v-0.947h11.6V382.505z"/>
	<path fill="#272D47" d="M310.494,383.926h-0.762l-6.463-11.103h-7.722v11.103h-0.663v-22.868h8.186
		c3.513,0,6.794,2.055,6.794,5.866c0,3.48-2.718,5.502-5.866,5.833L310.494,383.926z M303.07,372.16
		c3.116,0,6.131-1.789,6.131-5.236c0-3.414-2.983-5.203-6.131-5.203h-7.523v10.439H303.07z"/>
	<path fill="#272D47" d="M330.847,383.926h-0.729l-2.718-7.291h-10.904l-2.717,7.291h-0.696l8.518-22.868h0.696L330.847,383.926z
		 M327.168,375.972l-5.203-13.953l-5.204,13.953H327.168z"/>
	<path fill="#272D47" d="M350.304,383.926h-0.729l-13.919-21.741v21.741h-0.663v-22.868h0.729l13.92,21.741v-21.741h0.663V383.926z"
		/>
	<path fill="#272D47" d="M361.841,361.058c7.491,0,11.401,3.944,11.401,11.435c0,7.489-3.91,11.434-11.401,11.434h-5.236v-22.868
		H361.841z M361.841,383.263c7.125,0,10.738-3.646,10.738-10.771c0-7.126-3.612-10.771-10.738-10.771h-4.573v21.542H361.841z"/>
	<path fill="#272D47" stroke="#272D47" stroke-width="3" stroke-miterlimit="10" d="M405.42,384.399
		c-9.753,0-14.394-7.86-14.394-16.809c0-8.949,4.641-16.809,14.394-16.809c9.802,0,14.395,7.859,14.395,16.809
		C419.814,376.539,415.222,384.399,405.42,384.399z M405.42,351.729c-9.232,0-13.446,7.434-13.446,15.861
		s4.214,15.861,13.446,15.861c9.233,0,13.447-7.434,13.447-15.861S414.653,351.729,405.42,351.729z"/>
	<path fill="#272D47" d="M443.009,374.745c0,5.568-2.817,9.512-8.684,9.512s-8.684-3.943-8.684-9.512v-13.688h0.663v13.688
		c0,5.204,2.519,8.85,8.021,8.85s8.021-3.646,8.021-8.85v-13.688h0.663V374.745z"/>
	<path fill="#272D47" d="M462.964,383.926h-13.82v-22.868h13.82v0.663h-13.157v10.439h11.6v0.663h-11.6v10.439h13.157V383.926z"/>
	<path fill="#272D47" d="M481.692,366.228c-0.929-3.247-3.48-4.839-6.761-4.839c-3.348,0-6.231,1.989-6.231,5.535
		c0,7.523,14.053,2.718,14.053,11.169c0,4.507-3.547,6.164-7.523,6.164c-4.109,0-7.192-1.789-8.451-5.833l0.63-0.198
		c1.192,3.745,4.01,5.369,7.821,5.369c3.612,0,6.86-1.393,6.86-5.502c0-7.788-14.053-2.949-14.053-11.169
		c0-3.911,3.182-6.197,6.895-6.197c3.579,0,6.363,1.789,7.424,5.303L481.692,366.228z"/>
	<path fill="#272D47" d="M503.039,361.721h-8.319v22.205h-0.663v-22.205h-8.318v-0.663h17.301V361.721z"/>
</g>
</svg>
